<?xml version="1.0" encoding="utf-8"?>
<!-- Generator: Adobe Illustrator 14.0.0, SVG Export Plug-In . SVG Version: 6.00 Build 43363)  -->
<!DOCTYPE svg PUBLIC "-//W3C//DTD SVG 1.1//EN" "http://www.w3.org/Graphics/SVG/1.1/DTD/svg11.dtd">
<svg version="1.1" id="Ebene_1" xmlns="http://www.w3.org/2000/svg" xmlns:xlink="http://www.w3.org/1999/xlink" x="0px" y="0px"
	 width="52px" height="11px" viewBox="0 0 52 11" enable-background="new 0 0 52 11" xml:space="preserve">
<path fill="#FFFFFF" d="M7.117,11V5.732L5.646,8.45H4.017l-1.47-2.718V11H0V0h2.503l2.329,4.851L7.161,0h2.503v11H7.117z
	 M17.071,9.363 M13.375,11h-2.664l3.77-11h1.965l3.77,11h-2.664l-2.023-6.829L13.375,11z M26.502,11l-1.834-4.094h-0.859V11h-2.547
	V0h4.104c2.299,0,3.537,1.73,3.537,3.538c0,1.498-0.873,2.441-1.688,2.873L29.456,11H26.502z M25.25,2.425h-1.441v2.226h1.441
	c0.699,0,1.106-0.541,1.106-1.113S25.949,2.425,25.25,2.425z M35.234,2.409V11h-2.547V2.409h-2.547V0h7.64v2.409H35.234z M39.265,11
	V0h2.548v11H39.265z M49.772,11l-3.318-5.532V11h-2.547V0h2.228l3.317,5.532V0H52v11H49.772z"/>
</svg>
